<svg xmlns="http://www.w3.org/2000/svg" viewBox="0 0 64 64" id="hourglass"><path d="M43.04 21.35a.508.508 0 0 0-.38-.38c-1.43-.3-4.6-.84-8.1-.59h-.04c-.93.07-1.87.19-2.82.39-.06 0-.12.02-.19.04-2.17.48-4.32 1.35-6.15 2.85l-.06.03c-.01.01-.01.03-.02.04-.28.23-.56.46-.82.72-.27.27-.5.55-.73.83-.01.01-.03.01-.04.02l-.03.06c-1.5 1.83-2.37 3.97-2.84 6.13-.04.08-.06.15-.06.23-.18.89-.3 1.78-.37 2.66-.02.07-.03.13-.02.2-.25 3.5.3 6.65.6 8.07.04.19.19.34.38.38 1.17.25 3.51.66 6.26.66.59 0 1.21-.02 1.84-.07h.01c3.13-.22 6.54-1.08 9.23-3.31h.01c.29-.24.58-.49.85-.76.26-.27.5-.55.73-.83.01-.01.02-.01.03-.02.01-.01.02-.04.03-.05 1.5-1.82 2.37-3.96 2.84-6.12.05-.08.07-.16.06-.25.19-.91.31-1.81.38-2.7.01-.05.02-.1.02-.15.24-3.5-.3-6.66-.6-8.08zM21.87 42.13c-.27-1.33-.65-3.74-.57-6.45l7.02 7.02c-2.72.07-5.13-.3-6.45-.57zm7.77.49-8.27-8.27c.04-.53.12-1.08.21-1.62l9.69 9.69c-.55.09-1.09.16-1.63.2zm2.8-.43L21.8 31.56c.42-1.82 1.13-3.6 2.29-5.16l13.52 13.51c-1.57 1.15-3.35 1.87-5.17 2.28zm6.41-3.34c-.15.15-.32.29-.48.43L24.72 25.63c.15-.16.28-.33.43-.48.16-.15.32-.28.48-.43l13.65 13.65c-.14.16-.27.33-.43.48zm1.06-1.24L26.4 24.09c1.56-1.15 3.34-1.87 5.16-2.28L42.2 32.44c-.42 1.82-1.13 3.61-2.29 5.17zm2.52-6.33-9.7-9.7c.55-.09 1.09-.16 1.63-.21l8.28 8.28c-.05.54-.12 1.08-.21 1.63zm.28-2.95-7.03-7.03c2.72-.07 5.13.3 6.46.57.27 1.33.64 3.74.57 6.46z"></path><path fill="#ea625c" d="M31.27 42.42c-.55.09-1.09.16-1.63.2l-8.27-8.27c.04-.53.12-1.08.21-1.62l9.69 9.69z"></path><path d="M63.65 17.13c-.3-.45-.76-.76-1.29-.87-.54-.11-1.09 0-1.54.31-.99.66-2.06 1.16-3.17 1.53L45.91 6.35c.36-1.11.86-2.18 1.52-3.17.31-.45.42-1 .31-1.54-.11-.53-.41-.99-.86-1.29-.46-.31-1-.41-1.54-.31-.53.11-.99.41-1.3.87-3.7 5.52-3.42 12.54-2.8 16.64-4.93-.74-13.33-.94-18.98 4.71-5.64 5.64-5.45 14.05-4.71 18.97-4.1-.61-11.12-.9-16.64 2.81-.46.31-.76.77-.87 1.3-.1.54.01 1.08.31 1.54.3.45.76.76 1.3.86.54.11 1.08 0 1.54-.31.98-.66 2.05-1.16 3.16-1.52L18.1 57.66c-.37 1.1-.87 2.17-1.53 3.16-.55.81-.44 1.89.25 2.58.09.09.19.18.3.25.35.23.74.35 1.14.35.13 0 .27-.01.4-.04.53-.1 1-.41 1.3-.86 3.71-5.53 3.43-12.55 2.81-16.65 4.93.74 13.33.93 18.97-4.71 5.65-5.65 5.46-14.05 4.71-18.98 4.1.62 11.13.91 16.65-2.8.45-.3.76-.77.86-1.3.11-.54 0-1.08-.31-1.53zm-7.07 1.28c-.51.13-1.02.23-1.52.31l-9.79-9.78c.09-.5.19-1.01.32-1.52l10.99 10.99zm-2.75.48c-3.47.37-6.73-.13-8.28-.44-.32-1.55-.81-4.81-.44-8.28l8.72 8.72zM7.42 45.59c.51-.13 1.02-.23 1.52-.32l9.79 9.79c-.08.51-.18 1.02-.31 1.52l-11-10.99zm2.75-.48c3.47-.37 6.74.12 8.29.43.32 1.56.81 4.82.44 8.3l-8.73-8.73zm52.38-25.97c-5.56 3.73-12.79 3.2-16.61 2.55a.48.48 0 0 0-.43.13c-.12.12-.17.28-.14.43.79 4.62 1.28 13.19-4.32 18.79-5.6 5.6-14.18 5.12-18.79 4.33a.469.469 0 0 0-.43.14c-.11.11-.16.27-.14.43.65 3.81 1.19 11.05-2.55 16.61-.15.23-.39.39-.67.45-.28.05-.56-.01-.8-.16-.05-.04-.11-.09-.16-.14-.35-.35-.41-.91-.12-1.33 3.75-5.59 2.63-13.3 1.97-16.35a.508.508 0 0 0-.38-.38c-1.1-.23-3.46-.65-6.25-.65-1.14 0-2.36.08-3.6.26-.07-.01-.15 0-.22.03-.84.13-1.69.33-2.52.58-.05.01-.09.02-.14.05-1.26.39-2.48.95-3.61 1.71a1.056 1.056 0 0 1-1.47-.29c-.16-.24-.22-.52-.16-.8.05-.27.21-.51.45-.67 5.55-3.73 12.79-3.2 16.61-2.55.15.03.31-.02.43-.14a.48.48 0 0 0 .13-.43c-.78-4.61-1.27-13.18 4.33-18.78 5.6-5.6 14.17-5.12 18.79-4.33.15.03.32-.02.43-.14.11-.11.16-.27.14-.43-.65-3.82-1.19-11.05 2.54-16.6.16-.24.4-.4.67-.45.29-.06.56 0 .8.16.23.15.39.39.45.66.05.29 0 .57-.16.81-3.75 5.58-2.63 13.28-1.97 16.33.04.19.19.34.38.38 1.56.33 5.61 1.02 9.83.4h.04c.06 0 .13-.01.19-.04.84-.13 1.68-.32 2.51-.58.05 0 .09-.01.13-.03 1.27-.4 2.5-.95 3.64-1.71.23-.16.52-.22.8-.16.27.05.51.21.67.44.15.24.21.52.16.8-.06.28-.22.52-.45.67z"></path><path fill="#f2a446" d="M18.73 55.06c-.08.51-.18 1.02-.31 1.52l-11-10.99c.51-.13 1.02-.23 1.52-.32l9.79 9.79z"></path><path fill="#47b28e" d="M56.58 18.41c-.51.13-1.02.23-1.52.31l-9.79-9.78c.09-.5.19-1.01.32-1.52l10.99 10.99z"></path><path fill="#d6d6d6" d="M62.84 17.67c-.16-.23-.4-.39-.67-.44-.28-.06-.57 0-.8.16-1.14.76-2.37 1.31-3.64 1.71-.04.02-.08.03-.13.03-.83.26-1.67.45-2.51.58-.06.03-.13.04-.19.04h-.04c-4.22.62-8.27-.07-9.83-.4a.494.494 0 0 1-.38-.38c-.66-3.05-1.78-10.75 1.97-16.33.16-.24.21-.52.16-.81-.06-.27-.22-.51-.45-.66-.24-.16-.51-.22-.8-.16-.27.05-.51.21-.67.45-3.73 5.55-3.19 12.78-2.54 16.6.02.16-.03.32-.14.43-.11.12-.28.17-.43.14-4.62-.79-13.19-1.27-18.79 4.33s-5.11 14.17-4.33 18.78a.48.48 0 0 1-.13.43c-.12.12-.28.17-.43.14-3.82-.65-11.06-1.18-16.61 2.55-.24.16-.4.4-.45.67-.06.28 0 .56.16.8a1.056 1.056 0 0 0 1.47.29c1.13-.76 2.35-1.32 3.61-1.71.05-.03.09-.04.14-.05.83-.25 1.68-.45 2.52-.58.07-.03.15-.04.22-.03 1.24-.18 2.46-.26 3.6-.26 2.79 0 5.15.42 6.25.65.19.05.34.19.38.38.66 3.05 1.78 10.76-1.97 16.35-.29.42-.23.98.12 1.33.05.05.11.1.16.14.24.15.52.21.8.16.28-.06.52-.22.67-.45 3.74-5.56 3.2-12.8 2.55-16.61-.02-.16.03-.32.14-.43.11-.12.28-.17.43-.14 4.61.79 13.19 1.27 18.79-4.33s5.11-14.17 4.32-18.79c-.03-.15.02-.31.14-.43a.48.48 0 0 1 .43-.13c3.82.65 11.05 1.18 16.61-2.55.23-.15.39-.39.45-.67.05-.28-.01-.56-.16-.8zm-19.2 11.76c0 .05-.01.1-.02.15-.07.89-.19 1.79-.38 2.7.01.09-.01.17-.06.25-.47 2.16-1.34 4.3-2.84 6.12-.01.01-.02.04-.03.05-.01.01-.02.01-.03.02-.23.28-.47.56-.73.83-.27.27-.56.52-.85.76h-.01c-2.69 2.23-6.1 3.09-9.23 3.31h-.01c-.63.05-1.25.07-1.84.07-2.75 0-5.09-.41-6.26-.66a.494.494 0 0 1-.38-.38c-.3-1.42-.85-4.57-.6-8.07-.01-.07 0-.13.02-.2.07-.88.19-1.77.37-2.66 0-.08.02-.15.06-.23.47-2.16 1.34-4.3 2.84-6.13l.03-.06c.01-.01.03-.01.04-.02.23-.28.46-.56.73-.83.26-.26.54-.49.82-.72.01-.01.01-.03.02-.04l.06-.03c1.83-1.5 3.98-2.37 6.15-2.85.07-.02.13-.04.19-.04.95-.2 1.89-.32 2.82-.39h.04c3.5-.25 6.67.29 8.1.59.19.04.33.19.38.38.3 1.42.84 4.58.6 8.08z"></path><path fill="#bfbfbd" d="M63 18.47c-.06.28-.22.52-.45.67-5.56 3.73-12.79 3.2-16.61 2.55a.48.48 0 0 0-.43.13c-.12.12-.17.28-.14.43.79 4.62 1.28 13.19-4.32 18.79-5.6 5.6-14.18 5.12-18.79 4.33a.469.469 0 0 0-.43.14c-.11.11-.16.27-.14.43.65 3.81 1.19 11.05-2.55 16.61-.15.23-.39.39-.67.45-.28.05-.56-.01-.8-.16-.05-.04-.11-.09-.16-.14-.23-.23-.33-.54-.29-.85.03 0 .06 0 .09-.01.27-.07.5-.24.66-.46 3.86-5.44 3.83-12.17 3.48-15.68-.01-.15.05-.3.16-.41.11-.12.27-.18.41-.16 4.25.43 12.23.31 17.83-5.29 5.6-5.6 5.71-13.57 5.28-17.83-.02-.14.04-.29.16-.41.11-.11.26-.17.41-.15 3.52.35 10.24.37 15.68-3.48.22-.16.39-.39.46-.66.01-.03.01-.06.01-.09.11-.02.21-.01.32.01.27.05.51.21.67.44.15.24.21.52.16.8z"></path><path fill="#ebebeb" d="M46.79 2.15a1.165 1.165 0 0 0-.76.48c-3.85 5.43-3.82 12.15-3.47 15.67.01.15-.05.3-.16.41-.11.12-.27.18-.41.16-4.26-.43-12.23-.31-17.83 5.29-5.6 5.6-5.71 13.57-5.29 17.82.02.15-.04.3-.15.41-.12.12-.27.18-.41.16-3.52-.35-10.25-.37-15.68 3.48a1.165 1.165 0 0 0-.48.76c-.11.01-.21.01-.31-.01-.28-.06-.52-.22-.67-.45-.16-.24-.22-.52-.16-.8.05-.27.21-.51.45-.67 5.55-3.73 12.79-3.2 16.61-2.55.15.03.31-.02.43-.14a.48.48 0 0 0 .13-.43c-.78-4.61-1.27-13.18 4.33-18.78 5.6-5.6 14.17-5.12 18.79-4.33.15.03.32-.02.43-.14.11-.11.16-.27.14-.43-.65-3.82-1.19-11.05 2.54-16.6.16-.24.4-.4.67-.45.29-.06.56 0 .8.16.23.15.39.39.45.66.02.11.02.22.01.32z"></path><path fill="#7188a1" d="M42.64 29.65c-.05.54-.12 1.08-.21 1.63l-9.7-9.7c.55-.09 1.09-.16 1.63-.21l8.28 8.28z"></path><path fill="#43b5dd" d="M39.28 38.37c-.14.16-.27.33-.43.48-.15.15-.32.29-.48.43L24.72 25.63c.15-.16.28-.33.43-.48.16-.15.32-.28.48-.43l13.65 13.65z"></path><path d="m45.19 52.88-1.99-4.22a.475.475 0 0 0-.4-.28l-4.65-.39a.446.446 0 0 0-.45.21l-2.5 3.59-4.36-.36a.448.448 0 0 0-.44.21l-2.67 3.83c-.1.14-.11.33-.04.49l1.99 4.22c.07.16.23.26.4.28l4.65.39h.04c.16 0 .31-.08.41-.21l2.5-3.6 4.36.37h.04c.16 0 .31-.08.4-.21l2.67-3.83c.1-.15.11-.33.04-.49zm-10.66 6.96-4.08-.34-1.75-3.7 2.34-3.37 4.08.34 1.75 3.71-2.34 3.36zm7.31-3.44-4.08-.34-1.75-3.71 2.34-3.36 4.08.34 1.75 3.71-2.34 3.36z"></path><path fill="#43b5dd" d="m36.87 56.48-2.34 3.36-4.08-.34-1.75-3.7 2.34-3.37 4.08.34z"></path><path fill="#58cbf5" d="m36.87 56.48-2.34 3.36-.49-.04.01-.02 1.7-3.32-1.24-3.74.61.05z"></path><path fill="#35a2d1" d="m30.99 59.53.01.02-.55-.05-1.75-3.7 2.34-3.37.39.03-1.69 3.31z"></path><path fill="#7188a1" d="m44.18 53.04-2.34 3.36-.44-.04 1.7-3.32-1.25-3.76.58.05z"></path><path fill="#506b87" d="m37.09 52.35 1.25 3.76-.58-.05-1.75-3.71 2.34-3.36.44.04z"></path><path fill="#5e7791" d="m43.1 53.04-1.7 3.32-3.06-.25-1.25-3.76 1.7-3.32 3.06.25z"></path><path d="m25.11 9-2.9-3.65a.477.477 0 0 0-.46-.18l-4.33.64-2.72-3.43a.485.485 0 0 0-.46-.18l-4.61.68c-.18.03-.32.14-.39.31L7.53 7.52c-.07.17-.04.35.07.49l2.72 3.43-1.61 4.07c-.07.17-.04.35.07.49l2.9 3.65c.09.12.24.19.38.19h.08l4.61-.69c.17-.02.32-.14.39-.3l1.61-4.08 4.33-.64c.17-.02.32-.14.38-.3l1.72-4.34a.51.51 0 0 0-.07-.49zM8.55 7.62l1.5-3.81 4.05-.6 2.55 3.21-1.51 3.81-4.05.6-2.54-3.21zm7.77 10.6-4.05.6-2.54-3.21 1.5-3.81 4.06-.6 2.54 3.21-1.51 3.81zm6.33-5.02-4.05.6-2.54-3.21 1.5-3.81 4.06-.6 2.54 3.21-1.51 3.81z"></path><path fill="#f2a446" d="m17.83 14.41-1.51 3.81-4.05.6-2.54-3.21 1.5-3.81 4.06-.6z"></path><path fill="#47b28e" d="m16.65 6.42-1.51 3.81-4.05.6-2.54-3.21 1.5-3.81 4.05-.6z"></path><path fill="#53bf9f" d="m16.65 6.42-1.51 3.81-.42.06.94-3.74-2.06-3.27.5-.07z"></path><path fill="#3ba580" d="m11.63 10.75-.54.08-2.54-3.21 1.5-3.81 1.46-.22-.97.16-.95 3.77z"></path><path fill="#ea625c" d="m24.16 9.39-1.51 3.81-4.05.6-2.54-3.21 1.5-3.81 4.06-.6z"></path><path fill="#fa786b" d="m24.16 9.39-1.51 3.81-.42.06.94-3.74-2.06-3.27.5-.07z"></path><path fill="#d95b57" d="m19.14 13.72-.54.08-2.54-3.21 1.5-3.81.49-.06-.95 3.77z"></path><path fill="#fcb653" d="m17.83 14.41-1.51 3.81-.42.06.94-3.74-2.06-3.27.5-.07z"></path><path fill="#e89431" d="m12.81 18.74-.54.08-2.54-3.21 1.5-3.81.49-.06-.95 3.77z"></path></svg>